<?xml version="1.0" encoding="UTF-8"?>
<svg version="1.1" xmlns="http://www.w3.org/2000/svg" width="360" height="360">
<path d="M0 0 C118.8 0 237.6 0 360 0 C360 118.8 360 237.6 360 360 C241.2 360 122.4 360 0 360 C0 241.2 0 122.4 0 0 Z " fill="#FDBF17" transform="translate(0,0)"/>
<path d="M0 0 C118.8 0 237.6 0 360 0 C360 118.8 360 237.6 360 360 C241.2 360 122.4 360 0 360 C0 241.2 0 122.4 0 0 Z M41 40 C41 133.72 41 227.44 41 324 C134.72 324 228.44 324 325 324 C325 230.28 325 136.56 325 40 C231.28 40 137.56 40 41 40 Z " fill="#977940" transform="translate(0,0)"/>
<path d="M0 0 C2.375 2.375 2.375 2.375 2.375 5.375 C3.035 5.375 3.695 5.375 4.375 5.375 C8.02348487 13.99869151 9.80129222 22.99657121 9.375 32.375 C10.03242188 32.35179687 10.68984375 32.32859375 11.3671875 32.3046875 C20.82092686 32.12534827 30.01960499 33.16057691 39.375 34.375 C40.54289063 34.519375 41.71078125 34.66375 42.9140625 34.8125 C52.91422836 36.23024503 58.67006373 38.71074941 64.83203125 46.86328125 C68.19595855 52.33924392 69.77676774 56.8783557 69.6875 63.3125 C69.678396 64.0027124 69.66929199 64.6929248 69.65991211 65.40405273 C69.34294606 80.06870906 68.79974597 95.22009073 66.83203125 109.76171875 C66.39065772 113.25121034 66.20386379 116.66013367 66.08422852 120.17089844 C65.78927622 128.76469697 64.95131936 137.08975749 63.52734375 145.56665039 C62.7642434 150.26219396 62.22316116 154.90377741 61.91015625 159.65234375 C61.83917725 160.71807617 61.76819824 161.78380859 61.69506836 162.88183594 C61.56868279 164.94260092 61.4602747 167.00457902 61.37329102 169.06738281 C60.81772178 178.0631842 57.45628079 184.47525409 51.5625 191.25 C50.95792969 191.96929687 50.35335937 192.68859375 49.73046875 193.4296875 C43.82846286 198.30398092 37.41030282 198.82032923 30 198.625 C28.79150391 198.61726563 28.79150391 198.61726563 27.55859375 198.609375 C21.68637048 198.53068524 21.68637048 198.53068524 19.375 197.375 C16.67516323 197.12338269 13.99068829 196.9244952 11.28515625 196.76171875 C9.55386124 196.64919872 7.82257928 196.53647763 6.09130859 196.42358398 C5.17081726 196.36500214 4.25032593 196.30642029 3.30194092 196.24606323 C-13.40524918 195.17540899 -30.08200458 193.87838065 -46.75 192.3125 C-47.62985565 192.23059418 -48.5097113 192.14868835 -49.41622925 192.06430054 C-54.37053932 191.60132053 -59.32250565 191.11973099 -64.27258301 190.61346436 C-65.85478203 190.45307694 -67.43739988 190.29677396 -69.02038574 190.14434814 C-71.32477795 189.92121053 -73.6271838 189.68316771 -75.9296875 189.44140625 C-76.60548859 189.37863998 -77.28128967 189.31587372 -77.97756958 189.25120544 C-84.74167378 188.50704248 -90.16933175 186.40704245 -95 181.5 C-95.66773438 180.84257812 -96.33546875 180.18515625 -97.0234375 179.5078125 C-98.82918157 177.10308991 -99.26441643 175.33178525 -99.625 172.375 C-100.285 172.375 -100.945 172.375 -101.625 172.375 C-101.955 170.395 -102.285 168.415 -102.625 166.375 C-103.70599976 166.39856567 -103.70599976 166.39856567 -104.80883789 166.42260742 C-108.10164415 166.48530487 -111.39432438 166.52410095 -114.6875 166.5625 C-115.82123047 166.58763672 -116.95496094 166.61277344 -118.12304688 166.63867188 C-125.52597852 166.70342055 -130.82446459 166.47173256 -136.734375 161.65625 C-137.27578125 161.0684375 -137.8171875 160.480625 -138.375 159.875 C-138.92671875 159.2871875 -139.4784375 158.699375 -140.046875 158.09375 C-140.56765625 157.5265625 -141.0884375 156.959375 -141.625 156.375 C-142.11966263 155.91261932 -142.61432526 155.45023865 -143.12397766 154.97384644 C-148.85359793 148.87081738 -148.48653307 139.01023481 -149.11328125 131.1796875 C-149.23467926 129.76813062 -149.35712604 128.3566636 -149.48054504 126.94528198 C-149.73998917 123.95697115 -149.99271589 120.96819861 -150.24029541 117.97888184 C-150.61885932 113.41971276 -151.01903077 108.86261233 -151.42333984 104.30566406 C-152.03622514 97.37831717 -152.63307022 90.44974502 -153.21793938 83.51997757 C-153.54953337 79.59185027 -153.88416102 75.6640391 -154.22631836 71.73681641 C-158.67184714 20.64690711 -158.67184714 20.64690711 -148.6640625 8.296875 C-144.69440332 4.55535715 -139.98109104 3.375 -134.625 3.375 C-134.625 2.715 -134.625 2.055 -134.625 1.375 C-108.3565971 -1.10736807 -82.0785903 -3.34694943 -55.76660156 -5.31738281 C-54.69751556 -5.39771255 -53.62842957 -5.4780423 -52.52694702 -5.56080627 C-50.53878254 -5.70983389 -48.55052843 -5.8576732 -46.56216431 -6.00401306 C-41.30363467 -6.39695057 -36.05879355 -6.86027931 -30.81411743 -7.40879822 C-18.42871503 -8.63200627 -9.94114538 -7.58848452 0 0 Z " fill="#F5F4F3" transform="translate(226.625,86.625)"/>
<path d="M0 0 C0.69975952 -0.00358521 1.39951904 -0.00717041 2.1204834 -0.01086426 C14.96373544 -0.04646211 14.96373544 -0.04646211 19.6875 2.3125 C23.34828046 6.87770858 24.83994618 11.45269582 24.875 17.1875 C24.88917969 18.23679688 24.90335937 19.28609375 24.91796875 20.3671875 C24.69001156 23.28040308 24.09077277 24.80906138 22.6875 27.3125 C22.93385555 29.94029256 23.59825723 31.19350965 25.1875 33.3125 C28.61542314 37.88306419 28.0789453 43.84116222 27.6875 49.3125 C27.06524395 50.99625165 26.41205635 52.67017228 25.6875 54.3125 C25.96112104 57.0487104 26.94637318 58.79918158 28.25 61.25 C30.58927326 66.56233977 30.41945983 72.64339938 29.6875 78.3125 C27.81681597 82.50041845 25.82050828 84.37813966 21.6875 86.3125 C0.38594719 93.63542574 -23.25451445 94.50774162 -45.5987854 94.89413452 C-47.1058513 94.9228465 -48.61275265 94.96242984 -50.11923218 95.01333618 C-61.86687117 95.37821243 -61.86687117 95.37821243 -65.34326172 92.81542969 C-68.78926938 88.15614271 -69.46762041 83.61462133 -69.5 78 C-69.51417969 76.89011719 -69.52835937 75.78023438 -69.54296875 74.63671875 C-69.3125 71.3125 -69.3125 71.3125 -68.15234375 68.11328125 C-67.000842 65.42315774 -67.000842 65.42315774 -68.2109375 63.46875 C-68.69820313 62.9221875 -69.18546875 62.375625 -69.6875 61.8125 C-73.67862731 56.19455449 -72.84890145 49.91790068 -72.3125 43.3125 C-72.09980469 42.27867187 -71.88710937 41.24484375 -71.66796875 40.1796875 C-71.25828128 36.87517534 -71.78361463 35.5051454 -73.25 32.5625 C-76.03497479 26.14158589 -76.24223846 20.65955845 -74.375 13.9375 C-69.77025438 8.07691467 -61.4226084 6.56504815 -54.375 5.25 C-53.5200293 5.08790039 -52.66505859 4.92580078 -51.78417969 4.75878906 C-34.56876488 1.6281545 -17.48397348 0.03670811 0 0 Z " fill="#7F6352" transform="translate(179.3125,118.6875)"/>
<path d="M0 0 C0.69975952 -0.00358521 1.39951904 -0.00717041 2.1204834 -0.01086426 C14.96373544 -0.04646211 14.96373544 -0.04646211 19.6875 2.3125 C24.89785556 8.81011987 25.30037284 15.2940804 24.6875 23.3125 C23.93805804 25.93118965 22.99972059 27.90676225 21.6875 30.3125 C21.1925 29.3225 21.1925 29.3225 20.6875 28.3125 C-2.59223314 27.97503732 -25.08148658 29.16775052 -48.0625 32.8125 C-48.74688141 32.9200058 -49.43126282 33.0275116 -50.13638306 33.13827515 C-52.08709031 33.4482237 -54.03578676 33.77074728 -55.984375 34.09375 C-57.1094043 34.28001953 -58.23443359 34.46628906 -59.39355469 34.65820312 C-62.03701422 35.25074842 -63.9316518 36.08509815 -66.3125 37.3125 C-67.3025 37.3125 -68.2925 37.3125 -69.3125 37.3125 C-69.6425 38.3025 -69.9725 39.2925 -70.3125 40.3125 C-74.31430656 31.19409791 -77.10134535 23.75234327 -74.375 13.9375 C-69.77025438 8.07691467 -61.4226084 6.56504815 -54.375 5.25 C-53.5200293 5.08790039 -52.66505859 4.92580078 -51.78417969 4.75878906 C-34.56876488 1.6281545 -17.48397348 0.03670811 0 0 Z " fill="#B39984" transform="translate(179.3125,118.6875)"/>
<path d="M0 0 C0 0.66 0 1.32 0 2 C0.598125 2.185625 1.19625 2.37125 1.8125 2.5625 C5.03859612 4.68250602 6.08110927 7.38436473 7 11 C7.80855196 17.71972238 6.72834311 22.861228 4 29 C2.515 28.505 2.515 28.505 1 28 C1 27.34 1 26.68 1 26 C-15.06017672 26.21753626 -30.91559149 27.09652483 -46.875 28.875 C-47.62060181 28.95609009 -48.36620361 29.03718018 -49.13439941 29.12072754 C-59.22427819 30.23045289 -69.07410245 31.87160113 -79 34 C-80.66610739 34.3361176 -82.33255455 34.67058454 -84 35 C-84.33 35.99 -84.66 36.98 -85 38 C-87.0625 39.6875 -87.0625 39.6875 -89 41 C-88.78472656 40.40960938 -88.56945312 39.81921875 -88.34765625 39.2109375 C-87.75722073 37.00215062 -87.75722073 37.00215062 -88.99609375 35.3515625 C-89.47175781 34.78179687 -89.94742188 34.21203125 -90.4375 33.625 C-94.24478454 27.98300731 -93.91238883 21.55399311 -93 15 C-91.6818322 11.09257401 -90.74360763 9.45784537 -87.21484375 7.28515625 C-81.23237183 5.14710681 -74.81691729 4.39972526 -68.5625 3.4375 C-67.87737335 3.32983307 -67.1922467 3.22216614 -66.48635864 3.11123657 C-20.17547314 -4.13431827 -20.17547314 -4.13431827 0 0 Z " fill="#9E7C67" transform="translate(200,147)"/>
<path d="M0 0 C7.10546102 0.45841684 15.73491407 1.31385095 20.7265625 6.94921875 C23.67184697 11.69239159 23.36007724 16.59884146 23 22 C22 25.625 22 25.625 21 28 C20.34 28 19.68 28 19 28 C18.74015449 32.09802895 18.74015449 32.09802895 19.984375 35.9140625 C21.86006016 39.76643124 21.52905205 43.82169121 21 48 C20.3519592 49.71155937 19.64226158 51.40096395 18.875 53.0625 C16.84753182 57.59949172 17.02773476 60.09113459 18.3984375 64.78125 C20.14789848 71.23380739 19.29359371 76.45330826 16.16796875 82.2734375 C14.41748905 84.86110314 13.01821932 86.62070316 10.0390625 87.73046875 C0.11924995 89.60849151 -9.94773445 89.18197946 -20 89 C-19 87 -19 87 -17.21484375 86.359375 C-16.08755859 86.05773437 -16.08755859 86.05773437 -14.9375 85.75 C-8.80197781 83.76985532 -3.91939492 81.05769613 -0.42578125 75.4921875 C6.86367693 61.16391155 3.55531578 45.70660293 2 30.25 C1.7116442 27.36305525 1.42524071 24.47596906 1.14404297 21.58831787 C0.97030312 19.80586839 0.79253098 18.02380522 0.60986328 16.24224854 C0.07728494 10.8005999 -0.07695675 5.46805165 0 0 Z " fill="#806655" transform="translate(239,156)"/>
<path d="M0 0 C93.72 0 187.44 0 284 0 C281 3 281 3 278.89368856 3.37489682 C277.66330812 3.3748143 277.66330812 3.3748143 276.40807152 3.37473011 C275.46016507 3.38193665 274.51225861 3.3891432 273.53562772 3.39656812 C271.97043722 3.38550669 271.97043722 3.38550669 270.37362671 3.3742218 C269.26668728 3.37819621 268.15974786 3.38217061 267.01926482 3.38626546 C263.29054664 3.39593009 259.56220395 3.38404471 255.83349609 3.37231445 C253.16787691 3.37474113 250.502283 3.37834257 247.83666992 3.38337708 C241.33487969 3.39287839 234.83320023 3.38625255 228.3314182 3.37411413 C220.75810674 3.36050186 213.18482176 3.36213147 205.61150117 3.36424746 C192.09335434 3.36743964 178.57526013 3.35575918 165.05712891 3.33618164 C151.94643549 3.31719919 138.83580383 3.31008791 125.72509766 3.31567383 C111.45063838 3.32173759 97.17620628 3.32154188 82.90174925 3.310188 C81.378028 3.30898072 79.85430674 3.30777474 78.33058548 3.30657005 C77.58089886 3.30596651 76.83121224 3.30536298 76.05880784 3.30474115 C70.78359068 3.30086705 65.50838364 3.30125375 60.23316574 3.3031559 C53.7970173 3.30528263 47.36092285 3.3000183 40.92478959 3.28554235 C37.64269342 3.27831893 34.36069129 3.27528004 31.07858658 3.27878571 C27.51506289 3.28201411 23.95177464 3.27290849 20.38827515 3.26069641 C19.35819914 3.26447573 18.32812314 3.26825506 17.26683271 3.27214891 C11.21241076 3.2355027 5.86483774 2.52294728 0 1 C0 0.67 0 0.34 0 0 Z " fill="#9D7A2B" transform="translate(41,324)"/>
<path d="M0 0 C7.10546102 0.45841684 15.73491407 1.31385095 20.7265625 6.94921875 C23.67184697 11.69239159 23.36007724 16.59884146 23 22 C22 25.625 22 25.625 21 28 C20.34 28 19.68 28 19 28 C18.67 29.65 18.34 31.3 18 33 C17.319375 32.525625 16.63875 32.05125 15.9375 31.5625 C12.58158044 29.7774364 9.75838519 29.36846914 6 29 C4.9458482 32.16245541 4.68724328 34.86948218 4.4375 38.1875 C4.35371094 39.27417969 4.26992187 40.36085937 4.18359375 41.48046875 C4.12300781 42.31191406 4.06242188 43.14335937 4 44 C3.67 44 3.34 44 3 44 C2.5676995 39.1806926 2.14065653 34.3609572 1.71826172 29.54077148 C1.57416203 27.90457915 1.4286819 26.26850774 1.28173828 24.63256836 C1.06951539 22.26707721 0.86243189 19.90118072 0.65625 17.53515625 C0.59062866 16.81602554 0.52500732 16.09689484 0.45739746 15.35597229 C0.01687536 10.22153354 -0.05328861 5.15345309 0 0 Z " fill="#B29987" transform="translate(239,156)"/>
<path d="M0 0 C1.86785156 0.01353516 1.86785156 0.01353516 3.7734375 0.02734375 C5.18496094 0.04474609 5.18496094 0.04474609 6.625 0.0625 C6.955 0.7225 7.285 1.3825 7.625 2.0625 C7.01732285 2.10595047 6.40964569 2.14940094 5.78355408 2.19416809 C-20.88026616 4.10389949 -47.52282752 6.02972543 -74.11865234 8.73779297 C-79.596349 9.28400204 -85.07807964 9.77662955 -90.5625 10.25 C-91.4891748 10.3339502 -92.41584961 10.41790039 -93.37060547 10.50439453 C-100.04821608 11.06930111 -106.67562838 11.14774486 -113.375 11.0625 C-113.375 11.7225 -113.375 12.3825 -113.375 13.0625 C-114.21804687 13.23265625 -115.06109375 13.4028125 -115.9296875 13.578125 C-117.57324219 13.94164063 -117.57324219 13.94164063 -119.25 14.3125 C-120.88582031 14.66054687 -120.88582031 14.66054687 -122.5546875 15.015625 C-125.46420744 15.77191523 -125.46420744 15.77191523 -126.6015625 17.99609375 C-126.85679688 18.67800781 -127.11203125 19.35992187 -127.375 20.0625 C-129.875 22.875 -129.875 22.875 -131.15625 24.20703125 C-134.51958557 29.32749406 -134.66973459 35.19090597 -134.5625 41.125 C-134.55283203 42.26074463 -134.55283203 42.26074463 -134.54296875 43.41943359 C-134.41529916 53.30784252 -133.89776046 63.18844472 -133.375 73.0625 C-134.035 72.7325 -134.695 72.4025 -135.375 72.0625 C-138.67518102 57.31765451 -142.36182862 38.01597684 -134.7421875 24.17578125 C-131.41776316 19.03717105 -131.41776316 19.03717105 -129.375 17.0625 C-128.385 17.0625 -127.395 17.0625 -126.375 17.0625 C-126.375 16.4025 -126.375 15.7425 -126.375 15.0625 C-119.18376274 7.68687204 -107.89675998 8.13989383 -98.15625 7.94921875 C-94.8924133 7.93926803 -91.6373502 7.96943771 -88.375 8.0625 C-88.375 7.4025 -88.375 6.7425 -88.375 6.0625 C-86.45929199 5.94189209 -86.45929199 5.94189209 -84.50488281 5.81884766 C-54.65414904 3.94721944 -54.65414904 3.94721944 -24.8125 1.9375 C-23.16072754 1.82462646 -23.16072754 1.82462646 -21.47558594 1.70947266 C-17.65004784 1.43621994 -13.90439015 1.15210866 -10.12109375 0.51171875 C-6.71628212 -0.04525613 -3.44760686 -0.03252459 0 0 Z " fill="#EEC64B" transform="translate(205.375,76.9375)"/>
<path d="M0 0 C8.47364217 0.65814696 8.47364217 0.65814696 11.77734375 3.5625 C15.379562 8.74134131 16.02490669 13.85055986 15 20 C13.65561819 24.46459818 12.33475153 28.66524847 9 32 C8.278125 31.525625 7.55625 31.05125 6.8125 30.5625 C4.10524774 29.05847097 2.03805725 28.43400818 -1 28 C-2.33188292 23.34472043 -2.18406496 18.80905163 -2.1875 14 C-2.19974609 13.09765625 -2.21199219 12.1953125 -2.22460938 11.265625 C-2.22654297 10.39421875 -2.22847656 9.5228125 -2.23046875 8.625 C-2.23457764 7.83351562 -2.23868652 7.04203125 -2.24291992 6.2265625 C-1.97405224 3.76216729 -1.2296427 2.13458906 0 0 Z " fill="#9D7E69" transform="translate(245,184)"/>
<path d="M0 0 C0.33 0 0.66 0 1 0 C1.27691358 10.32272275 0.40962278 20.4816408 -0.5 30.75 C-0.64499852 32.42964723 -0.78953307 34.10933458 -0.93359375 35.7890625 C-1.28372327 39.85985661 -1.64009926 43.93005862 -2 48 C-2.99 48 -3.98 48 -5 48 C-5.3403125 49.546875 -5.3403125 49.546875 -5.6875 51.125 C-6.88861035 55.36777109 -8.93564546 57.8590366 -12 61 C-12.66 61 -13.32 61 -14 61 C-14.33 61.99 -14.66 62.98 -15 64 C-21.30838765 67.81541293 -27.67472271 67.42083866 -34.875 67.3125 C-36.07431152 67.303396 -37.27362305 67.29429199 -38.50927734 67.28491211 C-47.80935808 67.1554838 -56.80605178 66.36129074 -66 65 C-67.83242691 64.80383942 -69.66563767 64.61465026 -71.5 64.4375 C-75 64 -75 64 -76 63 C-78.14239655 62.72099643 -80.29317186 62.50613406 -82.4453125 62.31640625 C-83.11479919 62.25670151 -83.78428589 62.19699677 -84.47406006 62.13548279 C-86.69064918 61.93969879 -88.9077846 61.75104818 -91.125 61.5625 C-92.66162891 61.42782354 -94.19824993 61.29305696 -95.73486328 61.15820312 C-103.39636179 60.4961057 -111.05688445 59.90666483 -118.734375 59.46484375 C-119.42614838 59.4242836 -120.11792175 59.38372345 -120.83065796 59.3419342 C-124.10155253 59.15210745 -127.37222658 58.97659087 -130.64501953 58.82250977 C-138.40759538 58.39628988 -145.5345364 57.17849729 -153 55 C-152.67 54.34 -152.34 53.68 -152 53 C-150.72995117 53.309375 -149.45990234 53.61875 -148.15136719 53.9375 C-142.97863826 55.08357637 -137.8535238 55.59156706 -132.578125 56 C-131.59745056 56.08121094 -130.61677612 56.16242188 -129.60638428 56.24609375 C-126.48803457 56.50324154 -123.36908803 56.7519843 -120.25 57 C-116.17168931 57.3310758 -112.09366063 57.66555592 -108.015625 58 C-106.50449883 58.12273033 -106.50449883 58.12273033 -104.96284485 58.24794006 C-98.301051 58.79372163 -91.6482103 59.406102 -84.99609375 60.05859375 C-75.61050882 60.97583896 -66.22875647 61.62656949 -56.81469727 62.17993164 C-54.88275963 62.29476792 -52.95113696 62.41486583 -51.01953125 62.53515625 C-49.90682861 62.600979 -48.79412598 62.66680176 -47.64770508 62.73461914 C-45 63 -45 63 -43 64 C-28.77656339 65.18317015 -28.77656339 65.18317015 -16 60 C-5.98335874 50.90859066 -4.29077416 41.15946159 -3.375 28.25 C-3.16110497 25.46292197 -2.9378734 22.67666919 -2.7109375 19.890625 C-2.6575824 19.21986938 -2.60422729 18.54911377 -2.54925537 17.85803223 C-2.04465393 11.8399748 -1.12375165 5.93036314 0 0 Z " fill="#EFC346" transform="translate(291,220)"/>
<path d="M0 0 C3.24790781 1.38193918 4.97508798 2.85418609 7.0625 5.6875 C7.54847656 6.33074219 8.03445313 6.97398437 8.53515625 7.63671875 C11.88428604 13.03998148 13.40066388 17.58291877 13.3125 23.9375 C13.29884399 24.9728186 13.29884399 24.9728186 13.28491211 26.02905273 C12.96794606 40.69370906 12.42474597 55.84509073 10.45703125 70.38671875 C10.01565772 73.87621034 9.82886379 77.28513367 9.70922852 80.79589844 C9.41443678 89.38501892 8.56839886 97.70243623 7.15893555 106.17626953 C5.86782708 114.18381384 5.25040913 122.21635565 4.73461914 130.30761719 C4.66621826 131.28118164 4.59781738 132.25474609 4.52734375 133.2578125 C4.44601196 134.55936279 4.44601196 134.55936279 4.36303711 135.88720703 C4 138 4 138 2 140 C2.06058594 139.13246094 2.12117188 138.26492188 2.18359375 137.37109375 C2.65815021 130.01911907 3.02414864 122.68721699 3.18359375 115.3203125 C3.21607998 113.94864559 3.24871478 112.5769822 3.28149414 111.20532227 C3.33034208 109.14896607 3.37457292 107.09308787 3.40328979 105.03634644 C3.50571459 97.77130321 3.92228869 91.46221686 6.27832031 84.5871582 C7.82090797 79.05711713 7.88167945 73.269506 8.1875 67.5625 C8.22669556 66.88423157 8.26589111 66.20596313 8.30627441 65.50714111 C8.96757109 53.96794962 9.20818649 42.43179793 9.25 30.875 C9.25526703 30.11929718 9.26053406 29.36359436 9.26596069 28.58499146 C9.27764791 26.4288619 9.27439643 24.27332071 9.265625 22.1171875 C9.26224121 20.27036377 9.26224121 20.27036377 9.25878906 18.38623047 C8.9920861 14.89644737 8.41833929 12.19804267 7 9 C5.989375 8.505 4.97875 8.01 3.9375 7.5 C2.968125 7.005 1.99875 6.51 1 6 C0.125 2.8125 0.125 2.8125 0 0 Z " fill="#F2DEA7" transform="translate(283,126)"/>
<path d="M0 0 C4.11193452 1.88926721 5.70294655 3.76673261 7.38208008 7.94750977 C8.47113812 11.56493803 8.5748496 15.18141376 8.6875 18.9375 C8.73874023 20.10635742 8.73874023 20.10635742 8.79101562 21.29882812 C8.8726071 23.19874393 8.93799885 25.09934403 9 27 C9.80518066 27.01458252 10.61036133 27.02916504 11.43994141 27.04418945 C14.50067893 27.10617519 17.56083109 27.18047985 20.62109375 27.26245117 C22.56750146 27.31106394 24.51423191 27.34616757 26.4609375 27.38085938 C50.4583246 28.05425544 50.4583246 28.05425544 59 36 C59.33 36.99 59.66 37.98 60 39 C61.66279327 40.0064275 63.32983484 41.00585407 65 42 C66.875 43.75 66.875 43.75 68 46 C67.6875 49.75 67.6875 49.75 67 53 C65.93169942 51.39754913 64.87300526 49.78700531 63.88671875 48.1328125 C59.30361861 40.45947872 54.62860427 35.72415553 46 33 C33.31216275 30.20198873 19.92449325 29.94688278 7 29 C6.80664062 27.72125 6.61328125 26.4425 6.4140625 25.125 C6.15123735 23.41663655 5.88820549 21.70830489 5.625 20 C5.49867188 19.16082031 5.37234375 18.32164063 5.2421875 17.45703125 C4.42882079 12.21081598 3.36582004 7.13073268 2 2 C1.34 2 0.68 2 0 2 C0 1.34 0 0.68 0 0 Z " fill="#F0C44A" transform="translate(229,90)"/>
<path d="M0 0 C0 0.66 0 1.32 0 2 C-0.598125 2.433125 -1.19625 2.86625 -1.8125 3.3125 C-4.39085178 5.30151423 -5.46843425 7.13663794 -7 10 C-7.77790894 11.17103271 -7.77790894 11.17103271 -8.5715332 12.36572266 C-10.7149866 17.81905495 -10.36825542 23.03056434 -10.29296875 28.8359375 C-10.28872391 30.07042633 -10.28447906 31.30491516 -10.28010559 32.57681274 C-10.26334731 36.50976606 -10.22569883 40.44220221 -10.1875 44.375 C-10.1707574 47.04556542 -10.15876183 49.71612599 -10.14648438 52.38671875 C-10.11345298 58.92465486 -10.06328112 65.46229047 -10 72 C-10.33 72 -10.66 72 -11 72 C-11.4375263 67.20350156 -11.86412656 62.40618357 -12.28173828 57.60791016 C-12.42443514 55.98461373 -12.56983045 54.36155166 -12.71826172 52.73876953 C-13.52157859 43.93507236 -14.1581062 35.14694286 -14.28125 26.3046875 C-14.30070679 25.58725372 -14.32016357 24.86981995 -14.34020996 24.13064575 C-14.3594593 16.82691182 -12.08740154 10.77695783 -7.4375 5.0625 C-6.83808594 4.31097656 -6.23867187 3.55945313 -5.62109375 2.78515625 C-3.73933765 0.71295737 -2.81564701 0 0 0 Z " fill="#FEFAD1" transform="translate(84,92)"/>
<path d="M0 0 C0.495 0.99 0.495 0.99 1 2 C-3.86988328 10.02728014 -8.54799873 16.60402758 -18 19 C-21.08934072 19.24744377 -24.15269253 19.23495874 -27.25 19.1875 C-28.0646875 19.18685547 -28.879375 19.18621094 -29.71875 19.18554688 C-35.71830357 19.14084821 -35.71830357 19.14084821 -38 18 C-39.38667106 17.82664635 -40.78000103 17.70485373 -42.17431641 17.61108398 C-43.46542831 17.5211039 -43.46542831 17.5211039 -44.78262329 17.42930603 C-45.71287323 17.36884598 -46.64312317 17.30838593 -47.6015625 17.24609375 C-48.55316254 17.18092056 -49.50476257 17.11574738 -50.48519897 17.04859924 C-53.53154285 16.84088901 -56.57824825 16.63913033 -59.625 16.4375 C-61.68752651 16.29791716 -63.75002692 16.15794816 -65.8125 16.01757812 C-70.87470782 15.67389991 -75.9372478 15.33555965 -81 15 C-81 14.67 -81 14.34 -81 14 C-76.8882744 13.97534254 -72.77657722 13.95716041 -68.66479492 13.94506836 C-67.26504772 13.9400292 -65.8653058 13.93319784 -64.46557617 13.92456055 C-62.45754223 13.9124768 -60.44947043 13.90730193 -58.44140625 13.90234375 C-56.62684937 13.89448853 -56.62684937 13.89448853 -54.77563477 13.88647461 C-52 14 -52 14 -51 15 C-30.97884275 17.58189612 -30.97884275 17.58189612 -12 13 C-11.67 12.34 -11.34 11.68 -11 11 C-10.195625 10.71125 -9.39125 10.4225 -8.5625 10.125 C-5.86394485 9.22949848 -5.86394485 9.22949848 -4.6875 6.875 C-4.460625 6.25625 -4.23375 5.6375 -4 5 C-3.34 5 -2.68 5 -2 5 C-1.34 3.35 -0.68 1.7 0 0 Z " fill="#F4E0AE" transform="translate(284,266)"/>
<path d="M0 0 C0.99 0 1.98 0 3 0 C3.04345047 0.76341705 3.08690094 1.52683411 3.13166809 2.31338501 C3.54437043 9.52325969 3.96973006 16.73222501 4.4091692 23.94051552 C4.63462342 27.64601357 4.85524821 31.35166554 5.06469727 35.05810547 C5.26717483 38.63797885 5.48251929 42.21687087 5.70664024 45.79545212 C5.78972558 47.15785148 5.86824537 48.52053753 5.94202614 49.88347244 C6.04651028 51.79883647 6.16904069 53.71318982 6.29223633 55.62744141 C6.35663406 56.71554108 6.4210318 57.80364075 6.48738098 58.92471313 C7.06562386 62.39368846 8.38145974 64.89891044 10 68 C10 68.99 10 69.98 10 71 C10.66 71 11.32 71 12 71 C11.67 72.32 11.34 73.64 11 75 C3.81354349 68.34591999 4.17170635 58.13667155 3.4375 49 C3.31498892 47.57478844 3.19152492 46.1496585 3.06713867 44.72460938 C2.81858177 41.85466895 2.57671067 38.98429007 2.34082031 36.11328125 C2.03160527 32.35536515 1.7021397 28.59946801 1.3671875 24.84375 C1.18166103 22.7292219 0.99672507 20.61464188 0.8125 18.5 C0.72863037 17.54738281 0.64476074 16.59476563 0.55834961 15.61328125 C0.12138515 10.38667729 -0.07965384 5.24489886 0 0 Z " fill="#FEF9D3" transform="translate(74,168)"/>
<path d="M0 0 C3.24790781 1.38193918 4.97508798 2.85418609 7.0625 5.6875 C7.54847656 6.33074219 8.03445313 6.97398437 8.53515625 7.63671875 C15.83963726 19.42128145 13.13990483 33.69630253 12.125 46.9375 C12.00765503 48.52872681 12.00765503 48.52872681 11.88793945 50.15209961 C11.80374756 51.14218018 11.71955566 52.13226074 11.6328125 53.15234375 C11.55949707 54.03913818 11.48618164 54.92593262 11.41064453 55.83959961 C11 58 11 58 9 60 C9.00444122 59.44956024 9.00888245 58.89912048 9.01345825 58.33200073 C9.05779707 52.58919884 9.08791018 46.8464458 9.10986328 41.10351562 C9.11990416 38.96189396 9.13353954 36.82028595 9.15087891 34.67871094 C9.17521118 31.59566879 9.18650242 28.51280835 9.1953125 25.4296875 C9.20563507 24.47633514 9.21595764 23.52298279 9.22659302 22.54074097 C9.22740732 17.68665526 9.15608298 13.4648327 7 9 C5.989375 8.505 4.97875 8.01 3.9375 7.5 C2.968125 7.005 1.99875 6.51 1 6 C0.125 2.8125 0.125 2.8125 0 0 Z " fill="#F2E3C0" transform="translate(283,126)"/>
<path d="M0 0 C0.33 0 0.66 0 1 0 C1.27691358 10.32272275 0.40962278 20.4816408 -0.5 30.75 C-0.64499852 32.42964723 -0.78953307 34.10933458 -0.93359375 35.7890625 C-1.28372327 39.85985661 -1.64009926 43.93005862 -2 48 C-2.99 48 -3.98 48 -5 48 C-5.3403125 49.60875 -5.3403125 49.60875 -5.6875 51.25 C-7.13026545 55.37218701 -8.41910075 56.64414523 -12 59 C-12.66 58.67 -13.32 58.34 -14 58 C-13.60167969 57.49210937 -13.20335937 56.98421875 -12.79296875 56.4609375 C-12.26316406 55.77257812 -11.73335938 55.08421875 -11.1875 54.375 C-10.66542969 53.70210938 -10.14335937 53.02921875 -9.60546875 52.3359375 C-6.1088082 47.24833894 -4.60695992 42.99560959 -4.12109375 36.8359375 C-4.0634938 36.16261383 -4.00589386 35.48929016 -3.94654846 34.79556274 C-3.76525197 32.65614352 -3.60037827 30.51589324 -3.4375 28.375 C-3.21376096 25.56973093 -2.98261453 22.76515687 -2.74609375 19.9609375 C-2.68964691 19.28399841 -2.63320007 18.60705933 -2.57504272 17.90960693 C-2.04518299 11.87762451 -1.12298187 5.94719861 0 0 Z " fill="#EFC244" transform="translate(291,220)"/>
<path d="M0 0 C0.33 0 0.66 0 1 0 C1 2.31 1 4.62 1 7 C1.65742188 6.97679688 2.31484375 6.95359375 2.9921875 6.9296875 C17.21759901 6.65982875 34.83365091 7.32688729 48 13 C44.62502352 14.12499216 43.41943553 13.8341443 40 13.125 C34.50140043 12.12525462 29.13234828 11.72880702 23.5625 11.5 C2.605838 10.605838 2.605838 10.605838 0 8 C-0.14115161 5.32941149 -0.04247107 2.67567762 0 0 Z " fill="#F3E1B8" transform="translate(235,112)"/>
<path d="M0 0 C0.33 0 0.66 0 1 0 C1.07516846 0.91700684 1.15033691 1.83401367 1.2277832 2.77880859 C1.51564991 6.22755179 1.81316275 9.67519447 2.11694336 13.12255859 C2.24573193 14.6059585 2.37082701 16.08968444 2.49194336 17.57373047 C3.11356091 30.20612484 3.11356091 30.20612484 7 42 C8.96517293 43.19089278 8.96517293 43.19089278 11 44 C12.85290233 45.88215868 14.36715588 47.91358806 16 50 C14.1875 49.75 14.1875 49.75 12 49 C11 47.66666667 10 46.33333333 9 45 C8.01773438 44.80857422 8.01773438 44.80857422 7.015625 44.61328125 C5 44 5 44 3.953125 42.29296875 C3.72109375 41.59816406 3.4890625 40.90335938 3.25 40.1875 C3.00765625 39.50042969 2.7653125 38.81335938 2.515625 38.10546875 C2 36 2 36 2 32 C1.34 32 0.68 32 0 32 C0 21.44 0 10.88 0 0 Z " fill="#EEC648" transform="translate(76,200)"/>
<path d="M0 0 C-2.77115241 1.532705 -5.00494267 2.29719786 -8.15234375 2.59765625 C-8.92900391 2.67693359 -9.70566406 2.75621094 -10.50585938 2.83789062 C-11.70952148 2.94907227 -11.70952148 2.94907227 -12.9375 3.0625 C-14.53014601 3.21803686 -16.12260178 3.3755363 -17.71484375 3.53515625 C-18.41730225 3.600979 -19.11976074 3.66680176 -19.84350586 3.73461914 C-22.03702915 3.96771752 -22.03702915 3.96771752 -24.29980469 4.52294922 C-27.7308189 5.12911574 -31.00425307 5.11153684 -34.48828125 5.09765625 C-35.19147995 5.0962413 -35.89467865 5.09482635 -36.6191864 5.09336853 C-38.85033544 5.08780109 -41.08138164 5.07525475 -43.3125 5.0625 C-44.83137875 5.05748079 -46.35025909 5.05291862 -47.86914062 5.04882812 C-51.57946012 5.03784236 -55.28972001 5.02060034 -59 5 C-59 4.67 -59 4.34 -59 4 C-53.00921147 3.42127651 -47.01761758 2.85204946 -41.02514648 2.29101562 C-38.99333295 2.09951395 -36.96174789 1.90556982 -34.93041992 1.70898438 C-23.25097116 0.58047959 -11.74042095 -0.33355443 0 0 Z " fill="#FDF3BF" transform="translate(151,84)"/>
<path d="M0 0 C1.99954746 -0.04254356 4.00041636 -0.04080783 6 0 C6.33 0.33 6.66 0.66 7 1 C8.58903337 1.21666072 10.18657254 1.37155134 11.78515625 1.5 C13.28344971 1.62290405 13.28344971 1.62290405 14.81201172 1.74829102 C16.42100342 1.87288696 16.42100342 1.87288696 18.0625 2 C19.14547363 2.08757568 20.22844727 2.17515137 21.34423828 2.26538086 C28.94069297 2.86978512 36.53792793 3.36786591 44.1484375 3.75390625 C47 4 47 4 49 5 C52.30894459 5.27758124 55.61770071 5.44696305 58.93359375 5.62109375 C62 6 62 6 65 8 C53.24497653 7.53933016 41.52139682 6.7061955 29.79699707 5.75772095 C28.19292147 5.62842717 26.58867275 5.50126203 24.98425293 5.37631226 C7.89897141 4.03868481 7.89897141 4.03868481 1 2 C0.67 1.34 0.34 0.68 0 0 Z " fill="#F4E2B4" transform="translate(138,272)"/>
<path d="M0 0 C0 1.66666667 0 3.33333333 0 5 C1.0725 5.45375 2.145 5.9075 3.25 6.375 C5.88062317 7.50088537 8.46000396 8.67920206 11 10 C4.62542652 10.95468258 -1.56061653 11.1202324 -8 11.0625 C-8.96550781 11.05798828 -9.93101562 11.05347656 -10.92578125 11.04882812 C-13.28392089 11.03715417 -15.64192602 11.02078021 -18 11 C-17 9 -17 9 -15.21484375 8.359375 C-14.46332031 8.15828125 -13.71179688 7.9571875 -12.9375 7.75 C-7.79136552 6.15832699 -4.08545035 3.43979335 0 0 Z " fill="#8F7D73" transform="translate(237,234)"/>
<path d="M0 0 C0 0.66 0 1.32 0 2 C-17.74454373 4.24821356 -35.11279842 5.46015888 -53 5 C-53 4.67 -53 4.34 -53 4 C-44.31126982 3.10884819 -35.73139464 2.88375362 -27 3 C-27 2.34 -27 1.68 -27 1 C-17.98865693 0.3668316 -9.04028922 -0.1723784 0 0 Z " fill="#F1C236" transform="translate(144,82)"/>
<path d="M0 0 C4.21811497 0.06887495 8.43527005 0.15683738 12.65258789 0.26245117 C14.08704628 0.29569001 15.52163513 0.32372535 16.95629883 0.34643555 C19.01960807 0.38000271 21.08172303 0.43231413 23.14453125 0.48828125 C24.38565674 0.51446533 25.62678223 0.54064941 26.90551758 0.56762695 C30 1 30 1 31.87084961 2.39233398 C33.29490646 4.41988304 33.97579477 6.39816903 34.75 8.75 C36.75373156 14.08806611 39.69632006 17.34912544 44 21 C40.3392207 21 39.89164257 20.32378801 37.375 17.8125 C34.66599896 15.00654524 33.12263786 13.04704946 33 9 C32.34 9 31.68 9 31 9 C30.67 7.02 30.34 5.04 30 3 C28.90328979 3.01571045 28.90328979 3.01571045 27.78442383 3.03173828 C24.46048441 3.07340289 21.13660005 3.09935956 17.8125 3.125 C16.66201172 3.14175781 15.51152344 3.15851563 14.32617188 3.17578125 C13.21435547 3.18222656 12.10253906 3.18867188 10.95703125 3.1953125 C9.42526245 3.21102295 9.42526245 3.21102295 7.86254883 3.22705078 C4.87387833 2.98999632 2.70576631 2.25617102 0 1 C0 0.67 0 0.34 0 0 Z " fill="#FDF6C5" transform="translate(94,250)"/>
<path d="M0 0 C0.33 0 0.66 0 1 0 C1 6.6 1 13.2 1 20 C1.66 20 2.32 20 3 20 C3.33 27.26 3.66 34.52 4 42 C3.34 41.67 2.68 41.34 2 41 C1.33428123 38.02564184 0.81071943 35.13547578 0.375 32.125 C0.24383789 31.2376416 0.11267578 30.3502832 -0.02246094 29.43603516 C-3.16524072 6.33048144 -3.16524072 6.33048144 0 0 Z " fill="#F0C33D" transform="translate(68,108)"/>
<path d="M0 0 C0.495 0.99 0.495 0.99 1 2 C-1.96872925 1.56342217 -4.0174722 0.98989873 -6.63720703 -0.5246582 C-10.84753365 -2.37183432 -14.14579526 -2.38316088 -18.6796875 -2.29296875 C-19.89883347 -2.28660149 -19.89883347 -2.28660149 -21.14260864 -2.28010559 C-23.72041959 -2.26340804 -26.2974282 -2.22577362 -28.875 -2.1875 C-30.63019699 -2.17244158 -32.38540631 -2.1587552 -34.140625 -2.14648438 C-38.42738913 -2.11353392 -42.71355886 -2.06181453 -47 -2 C-47 -2.33 -47 -2.66 -47 -3 C-9.37796979 -6.87717784 -9.37796979 -6.87717784 0 0 Z " fill="#FEF4BD" transform="translate(223,84)"/>
<path d="M0 0 C4.11193452 1.88926721 5.70294655 3.76673261 7.38208008 7.94750977 C8.47113812 11.56493803 8.5748496 15.18141376 8.6875 18.9375 C8.73874023 20.10635742 8.73874023 20.10635742 8.79101562 21.29882812 C8.8726071 23.19874393 8.93799885 25.09934403 9 27 C11.64 27 14.28 27 17 27 C17 27.33 17 27.66 17 28 C13.7 28 10.4 28 7 28 C6.80664062 26.7934375 6.61328125 25.586875 6.4140625 24.34375 C6.15121866 22.72913784 5.88818783 21.11455612 5.625 19.5 C5.49867188 18.70851563 5.37234375 17.91703125 5.2421875 17.1015625 C4.40359674 11.98615885 3.32215015 7.01267362 2 2 C1.34 2 0.68 2 0 2 C0 1.34 0 0.68 0 0 Z " fill="#F0BF2F" transform="translate(229,90)"/>
<path d="M0 0 C0.33 0 0.66 0 1 0 C2.24735 8.64667866 3.23941336 17.13748194 3.55859375 25.87890625 C4.05855362 29.41402075 5.34840283 31.85976326 7 35 C7 35.99 7 36.98 7 38 C7.66 38 8.32 38 9 38 C8.67 39.32 8.34 40.64 8 42 C2.23392818 36.74805533 1.46665264 29.13440586 0.8125 21.75 C0.73209473 20.92459717 0.65168945 20.09919434 0.56884766 19.2487793 C-0.01881391 12.82647788 -0.23167819 6.44837621 0 0 Z " fill="#FEF5BC" transform="translate(77,201)"/>
<path d="M0 0 C0.33 0 0.66 0 1 0 C2.74018655 11.40443688 3.24020685 22.47007127 3 34 C2.67 34 2.34 34 2 34 C0.25981345 22.59556312 -0.24020685 11.52992873 0 0 Z " fill="#F3BF29" transform="translate(73,182)"/>
<path d="M0 0 C3.3 0 6.6 0 10 0 C10.27972656 0.78503906 10.55945313 1.57007813 10.84765625 2.37890625 C13.50634663 9.34621383 16.20031693 14.25328533 22 19 C18.3392207 19 17.89164257 18.32378801 15.375 15.8125 C12.66599896 13.00654524 11.12263786 11.04704946 11 7 C10.34 7 9.68 7 9 7 C8.67 5.02 8.34 3.04 8 1 C5.36 1 2.72 1 0 1 C0 0.67 0 0.34 0 0 Z " fill="#F7DFAB" transform="translate(116,252)"/>
<path d="M0 0 C0.66 0 1.32 0 2 0 C2.33 0.66 2.66 1.32 3 2 C3.78375 2.45375 4.5675 2.9075 5.375 3.375 C8.14748192 5.09129833 9.54384781 6.08769562 11 9 C10.6875 12.75 10.6875 12.75 10 16 C6.51027447 10.76541171 3.21178021 5.40931403 0 0 Z " fill="#EFCA58" transform="translate(286,127)"/>
<path d="M0 0 C0.33 0 0.66 0 1 0 C1.73915132 7.72002493 0.48133849 13.57281717 -4 20 C-6.171875 21.78515625 -6.171875 21.78515625 -8 23 C-8.66 22.67 -9.32 22.34 -10 22 C-9.60167969 21.49210937 -9.20335937 20.98421875 -8.79296875 20.4609375 C-3.62288822 13.74360659 -0.73249183 8.49690519 0 0 Z " fill="#EDC95D" transform="translate(287,256)"/>
<path d="M0 0 C2.55664559 2.22317008 3.3936615 3.68845894 4 7 C4.06624507 8.74886981 4.08552595 10.50002748 4.0625 12.25 C4.05347656 13.14203125 4.04445312 14.0340625 4.03515625 14.953125 C4.02355469 15.62859375 4.01195312 16.3040625 4 17 C1.8748535 15.27260819 1.0706463 14.35207334 0.5234375 11.625 C0.47445312 10.75875 0.42546875 9.8925 0.375 9 C0.18916035 6.02656556 -0.04952922 3.85141235 -1 1 C-0.67 0.67 -0.34 0.34 0 0 Z " fill="#A69082" transform="translate(203,151)"/>
<path d="M0 0 C8.625 0.75 8.625 0.75 12 3 C7.545 3.495 7.545 3.495 3 4 C2.67 5.65 2.34 7.3 2 9 C1.34 9 0.68 9 0 9 C0 6.03 0 3.06 0 0 Z " fill="#B4A496" transform="translate(239,156)"/>
<path d="M0 0 C0 0.66 0 1.32 0 2 C-0.598125 2.433125 -1.19625 2.86625 -1.8125 3.3125 C-4.35760787 5.27586893 -5.36308126 7.24997651 -7 10 C-8.62836738 11.7041054 -10.28769752 13.38025441 -12 15 C-11.46160353 10.84033414 -10.18381652 8.4980346 -7.5625 5.25 C-6.94503906 4.47140625 -6.32757813 3.6928125 -5.69140625 2.890625 C-3.77607173 0.74969681 -2.8862782 0 0 0 Z " fill="#FDF4BD" transform="translate(84,92)"/>
<path d="M0 0 C2.375 1 2.375 1 5 3 C7.35244578 9.27318874 7.21960823 15.36295113 7 22 C6.67 22 6.34 22 6 22 C5.79503906 20.89140625 5.59007812 19.7828125 5.37890625 18.640625 C5.10683538 17.17707133 4.83469638 15.71353033 4.5625 14.25 C4.42779297 13.52039063 4.29308594 12.79078125 4.15429688 12.0390625 C3.52540733 8.66453325 2.85677827 5.32365306 2 2 C1.34 2 0.68 2 0 2 C0 1.34 0 0.68 0 0 Z " fill="#ECC553" transform="translate(229,90)"/>
<path d="M0 0 C3.97387068 -0.31167613 6.30243685 -0.42805011 9.75 1.6875 C11.98496762 3.98455006 13.50808446 6.17321266 15 9 C12.08785835 7.56387535 9.22188493 6.0615021 6.375 4.5 C5.59898437 4.0771875 4.82296875 3.654375 4.0234375 3.21875 C2 2 2 2 0 0 Z " fill="#EECB55" transform="translate(213,79)"/>
<path d="M0 0 C1.99954746 -0.04254356 4.00041636 -0.04080783 6 0 C6.33 0.33 6.66 0.66 7 1 C9.28684338 1.2819396 11.57363273 1.44777005 13.87109375 1.62109375 C16 2 16 2 18 4 C12.16905105 4.21203451 6.55586224 3.96947414 1 2 C0.67 1.34 0.34 0.68 0 0 Z " fill="#F5DEA7" transform="translate(138,272)"/>
<path d="M0 0 C0.33 0.66 0.66 1.32 1 2 C0.34 2 -0.32 2 -1 2 C-1 2.66 -1 3.32 -1 4 C-0.01 4.33 0.98 4.66 2 5 C-1.63 5 -5.26 5 -9 5 C-5.89448334 1.89448334 -4.10801767 1.18676066 0 0 Z " fill="#7C6B61" transform="translate(233,239)"/>
<path d="M0 0 C6.45892714 -0.40368295 11.06108578 0.4084738 17 3 C13.48174645 4.17275118 11.56863959 3.80077874 7.9375 3.1875 C6.87402344 3.01605469 5.81054688 2.84460938 4.71484375 2.66796875 C2 2 2 2 0 0 Z " fill="#F4E3BF" transform="translate(266,122)"/>
<path d="M0 0 C-0.99 1.485 -0.99 1.485 -2 3 C-2.639375 2.814375 -3.27875 2.62875 -3.9375 2.4375 C-4.618125 2.293125 -5.29875 2.14875 -6 2 C-6.33 2.33 -6.66 2.66 -7 3 C-7.99 3.495 -7.99 3.495 -9 4 C-11.625 3.0625 -11.625 3.0625 -14 2 C-14 1.67 -14 1.34 -14 1 C-9.23692563 0.04738513 -4.8333472 -0.08333357 0 0 Z " fill="#BAAA9C" transform="translate(144,122)"/>
<path d="M0 0 C2.5 1.3125 2.5 1.3125 5 3 C5 3.99 5 4.98 5 6 C5.66 6 6.32 6 7 6 C7.33 7.32 7.66 8.64 8 10 C7.01 10 6.02 10 5 10 C3.61328125 8.3203125 3.61328125 8.3203125 2.3125 6.125 C1.87550781 5.40570313 1.43851563 4.68640625 0.98828125 3.9453125 C0 2 0 2 0 0 Z " fill="#FEF4C5" transform="translate(224,86)"/>
<path d="M0 0 C0.66 0.99 1.32 1.98 2 3 C0.72144088 5.55711823 -0.86209519 7.11361341 -3 9 C-3.99 9 -4.98 9 -6 9 C-4.63016497 5.83884224 -4.0109362 5.0072908 -1 3 C-0.67 2.01 -0.34 1.02 0 0 Z " fill="#E3DCD7" transform="translate(257,235)"/>
<path d="M0 0 C1.98 0 3.96 0 6 0 C6.66 1.32 7.32 2.64 8 4 C7.34 4.66 6.68 5.32 6 6 C3.97945196 4.35830472 1.97956942 2.69088222 0 1 C0 0.67 0 0.34 0 0 Z " fill="#F6C01E" transform="translate(228,88)"/>
<path d="M0 0 C3.3 0 6.6 0 10 0 C10.33 1.32 10.66 2.64 11 4 C10.01 5.485 10.01 5.485 9 7 C8.67 5.02 8.34 3.04 8 1 C5.36 1 2.72 1 0 1 C0 0.67 0 0.34 0 0 Z " fill="#F2DA98" transform="translate(116,252)"/>
<path d="M0 0 C0.99 0.33 1.98 0.66 3 1 C3 2.65 3 4.3 3 6 C1.68 5.67 0.36 5.34 -1 5 C-0.67 3.35 -0.34 1.7 0 0 Z " fill="#47372D" transform="translate(148,192)"/>
<path d="M0 0 C0.66 0 1.32 0 2 0 C3.1577506 3.47325181 3.06866652 6.36067448 3 10 C-0.00617269 6.99382731 0.40414684 4.17618402 0 0 Z " fill="#7E6D60" transform="translate(110,198)"/>
<path d="M0 0 C0.99 0 1.98 0 3 0 C3 1.65 3 3.3 3 5 C1.68 5 0.36 5 -1 5 C-0.67 3.35 -0.34 1.7 0 0 Z " fill="#4C3729" transform="translate(169,190)"/>
<path d="M0 0 C2.1519437 3.22791555 2.20086443 4.28400809 2 8 C0.35 8.33 -1.3 8.66 -3 9 C-2.01 6.03 -1.02 3.06 0 0 Z " fill="#DCCFC6" transform="translate(259,204)"/>
<path d="M0 0 C-0.375 1.9375 -0.375 1.9375 -1 4 C-1.99 4.495 -1.99 4.495 -3 5 C-3.99 4.01 -4.98 3.02 -6 2 C-3 0 -3 0 0 0 Z " fill="#826C5D" transform="translate(208,197)"/>
<path d="M0 0 C0.928125 0.0825 1.85625 0.165 2.8125 0.25 C0.83829865 2.77259061 -0.15495642 3.2429808 -3.375 3.9375 C-4.7671875 4.0921875 -4.7671875 4.0921875 -6.1875 4.25 C-4.36434338 1.00883268 -3.82500054 0.30000004 0 0 Z " fill="#F1C02D" transform="translate(88.1875,86.75)"/>
<path d="M0 0 C1.14926266 0.95421808 2.29430541 1.91352045 3.4375 2.875 C4.07558594 3.40867188 4.71367188 3.94234375 5.37109375 4.4921875 C7 6 7 6 8 8 C4.82461668 7.65978036 3.97723135 6.97533396 1.75 4.5625 C0 2 0 2 0 0 Z " fill="#F1CC63" transform="translate(84,242)"/>
</svg>
